<?xml version="1.0" encoding="utf-8"?>
<!-- Generator: Adobe Illustrator 24.3.0, SVG Export Plug-In . SVG Version: 6.00 Build 0)  -->
<svg version="1.1" id="katman_1" xmlns="http://www.w3.org/2000/svg" xmlns:xlink="http://www.w3.org/1999/xlink" x="0px" y="0px"
	 viewBox="0 0 661.8 379.6" style="enable-background:new 0 0 661.8 379.6;" xml:space="preserve">
<style type="text/css">
	.st0{fill:#7BD5D5;}
	.st1{fill:#117777;}
	.st2{fill:#229E60;}
</style>
<path class="st0" d="M129.8,113.5c-8,0-14.5,7.8-14.5,17.4c-0.1,5.5,2.2,10.7,6.2,14.4c3.8,3.2,4.4,4.2,5.4,6.4
	c0.7,1.6,0.6,7.7,0.4,12.2h4.6c-0.1-4.5-0.1-10.6,0.4-12.2c1-2.2,1.5-3.2,5.4-6.4c4.1-3.6,6.4-8.9,6.2-14.4
	C144.2,121.3,137.7,113.5,129.8,113.5z"/>
<path class="st0" d="M129.6,249.1c8,0,14.5-7.8,14.5-17.4c0.1-5.5-2.2-10.7-6.2-14.4c-3.8-3.2-4.4-4.2-5.4-6.4
	c-0.7-1.6-0.6-7.7-0.4-12.2h-4.6c0.1,4.5,0.1,10.6-0.4,12.2c-1,2.2-1.4,3.2-5.4,6.4c-3.9,3.2-6.2,8.4-6.2,14.4
	C115.1,241.2,121.6,249.1,129.6,249.1z"/>
<path class="st0" d="M81.7,133.3C76,139,77,149.1,83.9,156c3.8,3.9,9.2,6.1,14.7,5.8c5.1-0.4,6.1-0.1,8.3,0.7c1.6,0.6,5.8,4.9,9,8.3
	l1.6-1.6l1.6-1.6c-3.2-3-7.7-7.4-8.3-9c-0.9-2.2-1.2-3.3-0.7-8.3c0.4-5.5-1.7-10.9-5.8-14.7C97.4,128.7,87.3,127.7,81.7,133.3z"/>
<path class="st0" d="M177.6,229.2c5.7-5.7,4.6-15.7-2.2-22.5c-3.8-3.9-9.2-6.1-14.7-5.8c-5.1,0.4-6.1,0.1-8.3-0.7
	c-1.6-0.6-5.8-4.9-9-8.3l-1.6,1.6l-1.6,1.6c3.2,3,7.7,7.4,8.3,9c0.9,2.2,1.2,3.3,0.7,8.3c-0.4,5.5,1.7,10.9,5.8,14.6
	C161.9,234,171.9,234.9,177.6,229.2z"/>
<path class="st0" d="M61.8,181.3c0,8,7.8,14.5,17.4,14.5c5.5,0.1,10.7-2.2,14.4-6.2c3.2-3.9,4.2-4.4,6.4-5.4
	c1.6-0.7,7.7-0.6,12.2-0.6V179c-4.5,0.1-10.6,0.1-12.2-0.4c-2.2-1-3.2-1.5-6.4-5.4c-3.2-3.9-8.4-6.2-14.4-6.2
	C69.6,166.8,61.8,173.4,61.8,181.3z"/>
<path class="st0" d="M197.4,181.3c0-8-7.8-14.5-17.4-14.5c-5.5-0.1-10.7,2.2-14.4,6.2c-3.2,3.9-4.2,4.4-6.4,5.4
	c-1.6,0.7-7.7,0.6-12.2,0.4v4.6c4.5-0.1,10.6-0.1,12.2,0.6c2.2,1,3.2,1.5,6.4,5.4s8.4,6.2,14.4,6.2
	C189.6,195.7,197.4,189.2,197.4,181.3z"/>
<path class="st0" d="M81.7,229.2c5.7,5.7,15.8,4.6,22.5-2.2c3.9-3.8,6.1-9.2,5.8-14.7c-0.4-5.1-0.1-6.1,0.7-8.3
	c0.6-1.6,4.9-5.9,8.3-9l-1.6-1.6l-1.6-1.6c-3.2,3.3-7.5,7.7-9,8.3c-2.2,0.9-3.3,1.2-8.3,0.7c-5.5-0.4-10.9,1.7-14.7,5.8
	C77,213.5,76,223.5,81.7,229.2z"/>
<path class="st0" d="M177.6,133.3c-5.7-5.7-15.7-4.6-22.6,2.2c-3.9,3.8-6.1,9.2-5.8,14.6c0.3,5.1,0.1,6.1-0.7,8.3
	c-0.6,1.6-4.9,5.9-8.3,9l1.6,1.6l1.6,1.6c3-3.2,7.4-7.7,9-8.3c2.2-0.9,3.3-1.2,8.3-0.7c5.5,0.4,10.9-1.7,14.6-5.8
	C182.2,149,183.2,139,177.6,133.3z"/>
<path class="st0" d="M129.7,160.2c-11.7,0-21.2,9.5-21.2,21.2c0,11.7,9.5,21.2,21.2,21.2s21.2-9.5,21.2-21.2
	c0-11.7-9.4-21.1-21-21.2C129.8,160.2,129.7,160.2,129.7,160.2z M129.7,195.1c-7.7,0-13.9-6.2-13.9-13.9s6.2-13.9,13.9-13.9
	c7.7,0,13.9,6.2,13.9,13.9c0,0,0,0,0,0c0.2,7.5-5.8,13.8-13.4,13.9C130.1,195.1,129.9,195.1,129.7,195.1L129.7,195.1z"/>
<path class="st1" d="M232.4,154.5c0,10.5,9,14,19.3,17.1c13.8,4.1,29.6,8.2,29.6,28c0,17.2-15,26-31.6,26c-10,0-16.9-3.9-21.9-3.9
	c-3.4,0-5.8,1.7-8.4,3.9l-1.8-27.9h0.2c7.6,15.6,19.6,25.3,31.7,25.3c10.5,0,17.8-5.8,17.8-16.1c0-12.1-11.8-15-23.9-18.8
	c-12.4-3.8-25.1-8.7-25.1-25.8c0-15.4,12.7-25.2,29.8-25.2c9.5,0,15.9,3.8,20.4,3.8c3.4,0,5.4-2.1,7.3-3.8l0.5,24.8h-0.2
	c-6.8-12.8-15-22.3-27.9-22.3C239.6,139.6,232.4,144.7,232.4,154.5z"/>
<path class="st1" d="M310.1,210.9c0,8.1,0.7,10.1,6.3,13.2v0.2h-30.1v-0.2c5.5-3.1,6.1-5,6.1-13.2v-33.5c0-7.9-1.1-10.3-6.9-13.4
	v-0.2h24.6L310.1,210.9z M300.9,133.8c6,0,10.6,4.4,10.6,10.2s-4.5,10.2-10.6,10.2s-10.6-4.4-10.6-10.2S294.9,133.8,300.9,133.8z"/>
<path class="st1" d="M402.7,162.6c12.5,0,18.6,8.6,18.6,21.4v26.9c0,8.1,0.7,10.1,6.3,13.2v0.2h-30.1v-0.2c5.5-3.1,6.1-5,6.1-13.2
	V184c0-6.9-1.8-12.5-9.1-12.5s-12.1,6.8-12.1,18.9v20.5c0,8.1,0.7,10.1,6.3,13.2v0.2h-30.1v-0.2c5.5-3.1,6.1-5,6.1-13.2V184
	c0-6.9-1.8-12.5-9.1-12.5s-12.1,6.8-12.1,18.9v20.5c0,8.1,0.7,10.1,6.3,13.2v0.2h-30.1v-0.2c5.5-3.1,6.1-5,6.1-13.2v-33.5
	c0-7.9-1.1-10.3-6.9-13.4v-0.2h24.6v16.5c2.8-11.2,9.8-17.7,20.3-17.7c11.2,0,17.5,6.9,18.5,17.7
	C385.1,169.1,392.3,162.6,402.7,162.6z"/>
<path class="st1" d="M454.1,238.1c0,8.1,0.6,10.1,6.2,13.2v0.2h-30.1v-0.2c5.5-3.1,6.3-5,6.3-13.2v-60.6c0-7.9-1.2-10.3-7-13.4v-0.2
	h24.7v15.9c2.5-9.3,10.1-17.1,21.2-17.1c14.6,0,26.6,11.8,26.6,30.9c0,19.4-12.3,32.1-27.4,32.1c-10.7,0-17.8-6.6-20.3-15.4
	L454.1,238.1z M454.1,188.3v12.1c0,12.1,7.1,19.4,14.4,19.4c9.3,0,14.4-9.6,14.4-26.3c0-14.8-5.3-23.4-14.5-23.4
	C461.2,170.1,454.1,177.2,454.1,188.3z"/>
<path class="st1" d="M528.3,210.9c0,8.1,0.6,10.1,6.3,13.2v0.2h-30.3v-0.2c5.7-3.1,6.3-5,6.3-13.2v-65.2c0-7.7-1.6-10.6-7.4-13.3
	v-0.2h25.1V210.9z"/>
<path class="st1" d="M566.8,226.4l-24.5-49.3c-3.9-7.9-5.2-9.6-9.2-13v-0.2h29.3v0.2c-2.8,1.6-3.6,3.1-3.6,5.5c0.1,2.5,0.8,5,2,7.3
	l14,29.5l11.9-28.4c0.8-1.9,1.2-3.9,1.2-5.9c0-3.7-2-6.5-5.7-8v-0.2H600v0.2c-4.3,3.2-6.2,5.8-9.6,13.9l-25.1,59
	c-4.6,10.6-9.6,15.7-17.6,15.7c-7,0-12.2-3.9-12.2-10.7c0-6.3,4.4-9.8,9.7-9.8c1.3,0,2.7,0.2,3.9,0.7c-2.5,1.1-3.6,3-3.6,5.8
	c-0.1,3.5,2.6,6.4,6.1,6.5c0.2,0,0.4,0,0.6,0c4.7,0,7.6-3.3,10.8-10.5L566.8,226.4z"/>
<path class="st2" d="M265,249c0,4.1-1.6,6.7-4.8,7.9l6.4,9.1h-7l-5.6-8.1h-3.9v8.1h-5.6v-25.3h9.6c3.9,0,6.7,0.7,8.4,2
	C264.2,243.9,265.1,246,265,249z M258.2,252c0.8-0.8,1.1-1.9,1-3c0.1-1.1-0.3-2.1-1.1-2.8c-1.2-0.6-2.5-0.9-3.8-0.8h-4.2v7.5h4.1
	C256.2,252.9,257.5,252.6,258.2,252z"/>
<path class="st2" d="M292.2,240.6v5h-12.6v5.2h11.3v4.8h-11.3v5.3h13v5h-18.6v-25.3H292.2z"/>
<path class="st2" d="M313.3,260.9c2.7,0.1,5.2-1.2,6.8-3.3l3.6,3.7c-4.9,5.8-13.5,6.5-19.3,1.6c-0.2-0.2-0.4-0.3-0.5-0.5
	c-5.1-5.2-5-13.5,0.1-18.7c2.5-2.5,5.9-3.8,9.4-3.8c4-0.1,7.8,1.7,10.4,4.7l-3.5,4c-1.6-2.1-4-3.3-6.7-3.3c-2,0-4,0.7-5.5,2.1
	c-1.5,1.5-2.4,3.5-2.3,5.6c-0.1,2.1,0.7,4.2,2.1,5.7C309.4,260.2,311.3,260.9,313.3,260.9z"/>
<path class="st2" d="M331.9,240.6h5.6v25.3h-5.6V240.6z"/>
<path class="st2" d="M364.7,242.8c1.8,1.5,2.7,3.8,2.7,7s-0.9,5.4-2.7,6.9c-1.8,1.4-4.6,2.2-8.3,2.2h-3.4v7.1h-5.6v-25.3h8.9
	C360,240.6,362.9,241.3,364.7,242.8z M360.5,252.8c0.7-0.9,1.1-2.1,1-3.3c0.1-1.2-0.4-2.4-1.3-3.1c-1.2-0.7-2.7-1-4.1-0.9h-3.2v8.5
	h3.8C358.5,253.9,359.8,253.6,360.5,252.8L360.5,252.8z"/>
<path class="st2" d="M393.6,240.6v5H381v5.2h11.3v4.8H381v5.3h13v5h-18.7v-25.3H393.6z"/>
<path class="st2" d="M408.8,245.6c-0.5,0.4-0.8,1.1-0.8,1.8c0,0.7,0.4,1.4,1,1.8c1.5,0.7,3,1.2,4.6,1.5c2.1,0.4,4,1.3,5.6,2.7
	c1.4,1.3,2.1,3.2,2,5.2c0.1,2.1-0.9,4.2-2.6,5.5c-1.9,1.5-4.3,2.2-6.7,2.1c-4.1,0-7.9-1.6-10.8-4.5l3.4-4.1c2.7,2.4,5.3,3.6,7.6,3.6
	c0.9,0,1.7-0.2,2.4-0.7c0.6-0.4,0.9-1.1,0.9-1.8c0-0.7-0.3-1.4-0.9-1.8c-1.2-0.7-2.4-1.1-3.7-1.4c-2.3-0.4-4.5-1.4-6.5-2.7
	c-1.4-1.1-2-2.9-2-5.3c-0.1-2.2,0.9-4.2,2.6-5.6c1.9-1.4,4.2-2,6.5-2c1.7,0,3.4,0.3,5.1,0.9c1.6,0.5,3.1,1.4,4.4,2.5l-2.9,4.1
	c-1.9-1.6-4.3-2.4-6.8-2.5C410.2,244.9,409.4,245.1,408.8,245.6z"/>
</svg>
